<svg width="1920" height="960" viewBox="0 0 1920 960" fill="none" xmlns="http://www.w3.org/2000/svg">
  <defs>
    <linearGradient id="bg" x1="0" y1="0" x2="1920" y2="960" gradientUnits="userSpaceOnUse">
      <stop stop-color="#78B8FF"/>
      <stop offset="1" stop-color="#4F96F6"/>
    </linearGradient>

    <linearGradient id="cardFill" x1="180" y1="120" x2="1740" y2="840" gradientUnits="userSpaceOnUse">
      <stop stop-color="#EEF7FF"/>
      <stop offset="1" stop-color="#F9FCFF"/>
    </linearGradient>

    <linearGradient id="leftPanelFill" x1="180" y1="120" x2="1040" y2="840" gradientUnits="userSpaceOnUse">
      <stop stop-color="#EAF5FF"/>
      <stop offset="1" stop-color="#F8FCFF"/>
    </linearGradient>

    <linearGradient id="buildingBlue" x1="0" y1="0" x2="1" y2="1">
      <stop stop-color="#63BCFF"/>
      <stop offset="1" stop-color="#1A70ED"/>
    </linearGradient>

    <linearGradient id="glassBlue" x1="0" y1="0" x2="1" y2="1">
      <stop stop-color="#F7FBFF"/>
      <stop offset="1" stop-color="#DCEEFF"/>
    </linearGradient>

    <filter id="shadow" x="120" y="80" width="1700" height="840" filterUnits="userSpaceOnUse">
      <feDropShadow dx="0" dy="20" stdDeviation="28" flood-color="#1D5FAF" flood-opacity="0.16"/>
    </filter>

    <filter id="softShadow" x="-20%" y="-20%" width="140%" height="140%">
      <feDropShadow dx="0" dy="10" stdDeviation="16" flood-color="#2E6BB8" flood-opacity="0.14"/>
    </filter>

    <filter id="tinyGlow" x="-50%" y="-50%" width="200%" height="200%">
      <feGaussianBlur stdDeviation="4" result="blur"/>
      <feMerge>
        <feMergeNode in="blur"/>
        <feMergeNode in="SourceGraphic"/>
      </feMerge>
    </filter>
  </defs>

  <rect width="1920" height="960" fill="url(#bg)"/>

  <circle cx="110" cy="-10" r="185" fill="#B9D8FF" opacity="0.35"/>
  <circle cx="110" cy="-10" r="285" stroke="#2F7DE8" stroke-width="72" opacity="0.14"/>

  <circle cx="1865" cy="930" r="185" fill="#B9D8FF" opacity="0.22"/>
  <circle cx="1865" cy="930" r="305" stroke="#2F7DE8" stroke-width="80" opacity="0.14"/>

  <g opacity="0.35" fill="#FFFFFF">
    <circle cx="1718" cy="38" r="4"/>
    <circle cx="1742" cy="38" r="4"/>
    <circle cx="1766" cy="38" r="4"/>
    <circle cx="1790" cy="38" r="4"/>
    <circle cx="1814" cy="38" r="4"/>
    <circle cx="1838" cy="38" r="4"/>

    <circle cx="1718" cy="62" r="4"/>
    <circle cx="1742" cy="62" r="4"/>
    <circle cx="1766" cy="62" r="4"/>
    <circle cx="1790" cy="62" r="4"/>
    <circle cx="1814" cy="62" r="4"/>
    <circle cx="1838" cy="62" r="4"/>

    <circle cx="1718" cy="86" r="4"/>
    <circle cx="1742" cy="86" r="4"/>
    <circle cx="1766" cy="86" r="4"/>
    <circle cx="1790" cy="86" r="4"/>
    <circle cx="1814" cy="86" r="4"/>
    <circle cx="1838" cy="86" r="4"/>
  </g>

  <g filter="url(#shadow)">
    <rect x="180" y="120" width="1560" height="720" rx="48" fill="url(#cardFill)"/>
    <path d="M180 168C180 141.49 201.49 120 228 120H1050V840H228C201.49 840 180 818.51 180 792V168Z" fill="url(#leftPanelFill)"/>
  </g>

  <g opacity="0.75">
    <circle cx="1380" cy="420" r="260" fill="#FFFFFF" opacity="0.46"/>
    <circle cx="1510" cy="590" r="230" fill="#EAF4FF" opacity="0.65"/>
    <circle cx="1650" cy="300" r="120" fill="#F7FBFF" opacity="0.75"/>
  </g>

  <line x1="1050" y1="160" x2="1050" y2="800" stroke="#E5F0FC" stroke-width="2"/>

  <g opacity="0.22">
    <rect x="1260" y="280" width="360" height="240" rx="36" fill="#FFFFFF"/>
    <rect x="1320" y="350" width="220" height="14" rx="7" fill="#C9E1FF"/>
    <rect x="1320" y="390" width="180" height="12" rx="6" fill="#D9EBFF"/>
    <rect x="1320" y="425" width="140" height="12" rx="6" fill="#D9EBFF"/>
  </g>

  <g transform="translate(255 170)">
    <g opacity="0.95" filter="url(#softShadow)">
      <ellipse cx="165" cy="100" rx="36" ry="28" fill="#FFFFFF"/>
      <ellipse cx="205" cy="88" rx="46" ry="36" fill="#FFFFFF"/>
      <ellipse cx="248" cy="110" rx="40" ry="28" fill="#FFFFFF"/>
      <rect x="168" y="98" width="82" height="36" rx="18" fill="#FFFFFF"/>
    </g>

    <g opacity="0.9" filter="url(#softShadow)">
      <ellipse cx="700" cy="92" rx="36" ry="28" fill="#FFFFFF"/>
      <ellipse cx="742" cy="82" rx="48" ry="38" fill="#FFFFFF"/>
      <ellipse cx="787" cy="106" rx="40" ry="30" fill="#FFFFFF"/>
      <rect x="704" y="92" width="82" height="36" rx="18" fill="#FFFFFF"/>
    </g>

    <g opacity="0.5" stroke="#96C9FF" stroke-width="2">
      <path d="M120 565H310L395 502H615L700 560H920"/>
      <path d="M220 640H420L490 585H690"/>
      <path d="M70 490H185L255 432"/>
      <path d="M820 450H960L1010 404"/>
      <circle cx="310" cy="565" r="5" fill="#3B91FF"/>
      <circle cx="615" cy="502" r="5" fill="#3B91FF"/>
      <circle cx="700" cy="560" r="5" fill="#3B91FF"/>
      <circle cx="490" cy="585" r="5" fill="#3B91FF"/>
      <circle cx="960" cy="450" r="5" fill="#3B91FF"/>
    </g>

    <g transform="translate(42 250)" filter="url(#softShadow)">
      <polygon points="0,56 72,20 144,56 72,92" fill="#EAF6FF"/>
      <polygon points="0,56 72,92 72,236 0,198" fill="#DDEEFF"/>
      <polygon points="72,92 144,56 144,198 72,236" fill="#F9FCFF"/>
      <rect x="32" y="76" width="38" height="10" rx="4" fill="#2F8CFF"/>
      <rect x="32" y="110" width="38" height="10" rx="4" fill="#2F8CFF" opacity="0.78"/>
      <rect x="32" y="144" width="38" height="10" rx="4" fill="#2F8CFF" opacity="0.58"/>
      <rect x="32" y="178" width="38" height="10" rx="4" fill="#2F8CFF" opacity="0.40"/>
    </g>

    <g transform="translate(225 245)" filter="url(#softShadow)">
      <polygon points="0,225 235,105 520,245 275,385" fill="#EAF6FF"/>
      <polygon points="0,225 275,385 275,445 0,280" fill="#D7EAFF"/>
      <polygon points="275,385 520,245 520,300 275,445" fill="#F8FCFF"/>
    </g>

    <g transform="translate(335 170)" filter="url(#softShadow)">
      <polygon points="76,88 220,16 370,90 222,172" fill="#F9FDFF"/>
      <polygon points="112,86 220,34 330,88 222,145" fill="#DCEEFF"/>
      <polyline points="112,86 220,34 330,88" stroke="#4BA2FF" stroke-width="6" stroke-linecap="round" opacity="0.78"/>
      <polygon points="44,95 222,175 222,415 44,305" fill="#E6F4FF"/>
      <polygon points="222,175 402,94 402,332 222,415" fill="#FFFFFF"/>
      <polygon points="44,95 222,16 402,94 222,175" fill="#F9FDFF"/>
      <polygon points="152,72 220,40 292,75 223,112" fill="#ECF7FF"/>
      <polygon points="168,73 220,50 273,76 223,103" fill="#D7EBFF"/>
      <rect x="82" y="154" width="22" height="132" rx="8" fill="#2F8CFF" opacity="0.80"/>
      <rect x="126" y="178" width="22" height="132" rx="8" fill="#2F8CFF" opacity="0.62"/>
      <rect x="170" y="202" width="22" height="132" rx="8" fill="#2F8CFF" opacity="0.44"/>
      <polygon points="255,176 372,120 372,262 255,328" fill="url(#buildingBlue)"/>
      <rect x="278" y="175" width="74" height="8" rx="4" fill="#DCEEFF"/>
      <rect x="278" y="202" width="16" height="58" rx="4" fill="#E4F3FF"/>
      <rect x="304" y="188" width="16" height="72" rx="4" fill="#E4F3FF"/>
      <rect x="330" y="214" width="16" height="46" rx="4" fill="#E4F3FF"/>
      <circle cx="333" cy="156" r="14" fill="#DDEFFF" opacity="0.88"/>
      <polygon points="126,338 188,374 188,438 126,400" fill="#D7EBFF"/>
      <polygon points="188,374 250,338 250,402 188,438" fill="#F8FCFF"/>
      <path d="M126 400L28 460" stroke="#EDF6FF" stroke-width="24" stroke-linecap="round"/>
      <path d="M126 400L28 460" stroke="#CCE4FF" stroke-width="4" stroke-dasharray="13 11"/>
    </g>

    <g transform="translate(850 312)" filter="url(#softShadow)">
      <ellipse cx="88" cy="124" rx="42" ry="15" fill="#A9D3FF" opacity="0.32"/>
      <polygon points="8,52 72,20 136,52 72,84" fill="#ECF7FF"/>
      <polygon points="22,14 108,-26 108,70 22,112" fill="#FFFFFF"/>
      <polygon points="108,-26 140,-10 140,86 108,70" fill="#DCECFF"/>
      <circle cx="66" cy="34" r="22" fill="#2F8CFF" opacity="0.24"/>
      <path d="M66 12A22 22 0 0 1 88 34H66V12Z" fill="#2F8CFF"/>
      <rect x="38" y="66" width="66" height="6" rx="3" fill="#8FC5FF"/>
      <rect x="38" y="82" width="46" height="6" rx="3" fill="#B9DCFF"/>
    </g>

    <g transform="translate(720 480)" filter="url(#softShadow)">
      <polygon points="0,64 84,22 168,64 84,107" fill="#EAF6FF"/>
      <polygon points="0,64 84,107 84,145 0,103" fill="#D6EAFF"/>
      <polygon points="84,107 168,64 168,103 84,145" fill="#F8FCFF"/>
      <polygon points="22,22 84,-8 146,22 84,56" fill="#F8FCFF"/>
      <path d="M84 2L111 12V40C111 60 100 77 84 87C68 77 57 60 57 40V12L84 2Z" fill="#2F8CFF"/>
      <path d="M84 17L98 23V40C98 51 93 60 84 66C75 60 70 51 70 40V23L84 17Z" fill="#DDEEFF"/>
    </g>

    <g transform="translate(118 540)" filter="url(#softShadow)">
      <polygon points="0,38 50,12 102,38 50,66" fill="#EAF6FF"/>
      <polygon points="0,38 50,66 50,118 0,88" fill="#D6EAFF"/>
      <polygon points="50,66 102,38 102,88 50,118" fill="#F8FCFF"/>
      <rect x="24" y="34" width="52" height="24" rx="6" fill="#2F8CFF" opacity="0.8"/>
    </g>

    <g transform="translate(265 645)" filter="url(#softShadow)">
      <polygon points="0,22 28,8 56,22 28,36" fill="#C6E4FF"/>
      <polygon points="0,22 28,36 28,66 0,48" fill="#9BD0FF"/>
      <polygon points="28,36 56,22 56,48 28,66" fill="#2F8CFF"/>
    </g>

    <g transform="translate(595 635)" filter="url(#softShadow)">
      <polygon points="0,22 28,8 56,22 28,36" fill="#C6E4FF"/>
      <polygon points="0,22 28,36 28,66 0,48" fill="#9BD0FF"/>
      <polygon points="28,36 56,22 56,48 28,66" fill="#2F8CFF"/>
    </g>

    <g>
      <ellipse cx="652" cy="545" rx="12" ry="8" fill="#8DBA76"/>
      <path d="M652 478C672 508 672 542 652 557C632 542 632 508 652 478Z" fill="#42A564"/>
      <rect x="648" y="552" width="8" height="30" rx="4" fill="#8A694A"/>
      <ellipse cx="398" cy="556" rx="12" ry="8" fill="#8DBA76"/>
      <path d="M398 490C418 520 418 554 398 569C378 554 378 520 398 490Z" fill="#42A564"/>
      <rect x="394" y="564" width="8" height="28" rx="4" fill="#8A694A"/>
    </g>

    <g filter="url(#tinyGlow)" opacity="0.72">
      <circle cx="120" cy="480" r="4" fill="#4BA2FF"/>
      <circle cx="326" cy="566" r="4" fill="#4BA2FF"/>
      <circle cx="505" cy="618" r="4" fill="#4BA2FF"/>
      <circle cx="900" cy="430" r="4" fill="#4BA2FF"/>
      <circle cx="986" cy="395" r="4" fill="#4BA2FF"/>
    </g>
  </g>

  <g opacity="0.12">
    <rect x="1200" y="230" width="420" height="420" rx="36" stroke="#5EA8FF" stroke-width="2" stroke-dasharray="10 10"/>
  </g>
</svg>
